<?xml version="1.0" encoding="UTF-8" standalone="no"?>
<!-- Created with Inkscape (http://www.inkscape.org/) -->

<svg
   xmlns:dc="http://purl.org/dc/elements/1.1/"
   xmlns:cc="http://creativecommons.org/ns#"
   xmlns:rdf="http://www.w3.org/1999/02/22-rdf-syntax-ns#"
   xmlns:svg="http://www.w3.org/2000/svg"
   xmlns="http://www.w3.org/2000/svg"
   xmlns:sodipodi="http://sodipodi.sourceforge.net/DTD/sodipodi-0.dtd"
   xmlns:inkscape="http://www.inkscape.org/namespaces/inkscape"
   width="48pt"
   height="48pt"
   viewBox="0 0 16.933334 16.933333"
   version="1.1"
   id="svg979"
   inkscape:version="0.92.4 (5da689c313, 2019-01-14)"
   sodipodi:docname="21 - Invoice.svg"
   inkscape:export-filename="E:\TR Design Studio Creative\Project Design\TR Creative Design\Icon Design\Project Hiring\Icon Icons\003 - Business And Finance\Send\3 - Flat\21 - Invoice.png"
   inkscape:export-xdpi="768"
   inkscape:export-ydpi="768">
  <defs
     id="defs973" />
  <sodipodi:namedview
     id="base"
     pagecolor="#ffffff"
     bordercolor="#666666"
     borderopacity="1.0"
     inkscape:pageopacity="0.0"
     inkscape:pageshadow="2"
     inkscape:zoom="8.546875"
     inkscape:cx="32"
     inkscape:cy="32"
     inkscape:document-units="pt"
     inkscape:current-layer="layer1"
     showgrid="false"
     units="pt"
     inkscape:window-width="1366"
     inkscape:window-height="716"
     inkscape:window-x="-8"
     inkscape:window-y="-8"
     inkscape:window-maximized="1"
     inkscape:snap-bbox="true"
     inkscape:bbox-nodes="true"
     inkscape:snap-nodes="false"
     showguides="false">
    <inkscape:grid
       type="xygrid"
       id="grid1526" />
    <sodipodi:guide
       position="0.97013909,15.963209"
       orientation="56.666615,0"
       id="guide1528"
       inkscape:locked="false" />
    <sodipodi:guide
       position="0.97013909,0.97016731"
       orientation="0,56.666667"
       id="guide1530"
       inkscape:locked="false" />
    <sodipodi:guide
       position="15.963195,0.97016731"
       orientation="-56.666615,0"
       id="guide1532"
       inkscape:locked="false" />
    <sodipodi:guide
       position="15.963195,15.963209"
       orientation="0,-56.666667"
       id="guide1534"
       inkscape:locked="false" />
  </sodipodi:namedview>
  <metadata
     id="metadata976">
    <rdf:RDF>
      <cc:Work
         rdf:about="">
        <dc:format>image/svg+xml</dc:format>
        <dc:type
           rdf:resource="http://purl.org/dc/dcmitype/StillImage" />
        <dc:title></dc:title>
      </cc:Work>
    </rdf:RDF>
  </metadata>
  <g
     inkscape:label="Layer 1"
     inkscape:groupmode="layer"
     id="layer1"
     transform="translate(0,-280.06668)">
    <g
       transform="matrix(1.2319754,0,0,1.2319754,0.64402529,-123.78019)"
       id="g2480"
       style="stroke-width:0.81170458">
      <path
         inkscape:connector-curvature="0"
         id="path1729"
         d="m 1.5839844,337.05859 a 0.26461046,0.26461046 0 0 0 -0.2617188,0.26368 v 2.38085 c 0,0.58174 0.4768543,1.0586 1.0585938,1.0586 0.5817394,0 1.0585937,-0.47686 1.0585937,-1.0586 v -1.85156 a 0.26461046,0.26461046 0 0 0 -0.078125,-0.1875 l -0.5292969,-0.52929 a 0.26461046,0.26461046 0 0 0 -0.3730468,0 l -0.3417969,0.34179 -0.3417969,-0.34179 a 0.26461046,0.26461046 0 0 0 -0.1914062,-0.0762 z"
         style="color:#000000;font-style:normal;font-variant:normal;font-weight:normal;font-stretch:normal;font-size:medium;line-height:normal;font-family:sans-serif;font-variant-ligatures:normal;font-variant-position:normal;font-variant-caps:normal;font-variant-numeric:normal;font-variant-alternates:normal;font-feature-settings:normal;text-indent:0;text-align:start;text-decoration:none;text-decoration-line:none;text-decoration-style:solid;text-decoration-color:#000000;letter-spacing:normal;word-spacing:normal;text-transform:none;writing-mode:lr-tb;direction:ltr;text-orientation:mixed;dominant-baseline:auto;baseline-shift:baseline;text-anchor:start;white-space:normal;shape-padding:0;clip-rule:nonzero;display:inline;overflow:visible;visibility:visible;opacity:1;isolation:auto;mix-blend-mode:normal;color-interpolation:sRGB;color-interpolation-filters:linearRGB;solid-color:#000000;solid-opacity:1;vector-effect:none;fill:#b7b4b3;fill-opacity:1;fill-rule:nonzero;stroke:none;stroke-width:0.42952809;stroke-linecap:round;stroke-linejoin:round;stroke-miterlimit:1.5;stroke-dasharray:none;stroke-dashoffset:0;stroke-opacity:1;paint-order:markers fill stroke;color-rendering:auto;image-rendering:auto;shape-rendering:auto;text-rendering:auto;enable-background:accumulate" />
      <path
         inkscape:connector-curvature="0"
         id="path1721"
         d="m 2.3808594,328.5918 c -0.5817395,0 -1.0585938,0.47686 -1.0585938,1.05859 v 1.58594 a 0.26461046,0.26461046 0 0 0 0.265625,0.26562 h 1.5878906 a 0.26461046,0.26461046 0 0 0 0.2636719,-0.26562 v -1.58594 c -1e-7,-0.58173 -0.4768543,-1.05859 -1.0585937,-1.05859 z"
         style="color:#000000;font-style:normal;font-variant:normal;font-weight:normal;font-stretch:normal;font-size:medium;line-height:normal;font-family:sans-serif;font-variant-ligatures:normal;font-variant-position:normal;font-variant-caps:normal;font-variant-numeric:normal;font-variant-alternates:normal;font-feature-settings:normal;text-indent:0;text-align:start;text-decoration:none;text-decoration-line:none;text-decoration-style:solid;text-decoration-color:#000000;letter-spacing:normal;word-spacing:normal;text-transform:none;writing-mode:lr-tb;direction:ltr;text-orientation:mixed;dominant-baseline:auto;baseline-shift:baseline;text-anchor:start;white-space:normal;shape-padding:0;clip-rule:nonzero;display:inline;overflow:visible;visibility:visible;opacity:1;isolation:auto;mix-blend-mode:normal;color-interpolation:sRGB;color-interpolation-filters:linearRGB;solid-color:#000000;solid-opacity:1;vector-effect:none;fill:#b7b4b3;fill-opacity:1;fill-rule:nonzero;stroke:none;stroke-width:0.42952809;stroke-linecap:round;stroke-linejoin:round;stroke-miterlimit:1.5;stroke-dasharray:none;stroke-dashoffset:0;stroke-opacity:1;paint-order:markers fill stroke;color-rendering:auto;image-rendering:auto;shape-rendering:auto;text-rendering:auto;enable-background:accumulate" />
      <path
         sodipodi:nodetypes="ccccssscscsscccccssssc"
         inkscape:connector-curvature="0"
         id="path1705"
         transform="matrix(0.26458333,0,0,0.26458333,0,284.3)"
         d="m 8.9980469,167.40234 c -2.3959774,0 -4,2.04947 -4,4.00001 v 6.99872 c 0.028933,1.30408 1.9710665,1.30408 2,0 v -6.99872 c 0,-1.12524 0.8747001,-2 2,-2 0.9050524,0 2.0000001,0.8423 2.0000001,2 v 30.99805 6.99805 c 0,0.11085 -0.05039,0.48187 -0.185547,0.84375 -0.312328,0.68808 -0.9940905,1.15625 -1.8144531,1.15625 -1.1252999,0 -2,-0.87472 -2,-2 v -9.42007 c 0.011007,-0.5645 -0.4471514,-1.0262 -1.0117188,-1.01953 -0.5553777,0.006 -0.999108,0.46422 -0.9882812,1.01953 v 9.42007 c 0,2.45835 1.8879124,3.99997 4,3.99997 H 38.998047 c 2.198721,0 4.001953,-1.80126 4.001953,-4 v -37.9961 c 0,-2.1987 -1.803232,-4 -4.001953,-4 z"
         style="color:#000000;font-style:normal;font-variant:normal;font-weight:normal;font-stretch:normal;font-size:medium;line-height:normal;font-family:sans-serif;font-variant-ligatures:normal;font-variant-position:normal;font-variant-caps:normal;font-variant-numeric:normal;font-variant-alternates:normal;font-feature-settings:normal;text-indent:0;text-align:start;text-decoration:none;text-decoration-line:none;text-decoration-style:solid;text-decoration-color:#000000;letter-spacing:normal;word-spacing:normal;text-transform:none;writing-mode:lr-tb;direction:ltr;text-orientation:mixed;dominant-baseline:auto;baseline-shift:baseline;text-anchor:start;white-space:normal;shape-padding:0;clip-rule:nonzero;display:inline;overflow:visible;visibility:visible;opacity:1;isolation:auto;mix-blend-mode:normal;color-interpolation:sRGB;color-interpolation-filters:linearRGB;solid-color:#000000;solid-opacity:1;vector-effect:none;fill:#efebe9;fill-opacity:1;fill-rule:nonzero;stroke:none;stroke-width:1.62341011;stroke-linecap:round;stroke-linejoin:round;stroke-miterlimit:1.5;stroke-dasharray:none;stroke-dashoffset:0;stroke-opacity:1;paint-order:markers fill stroke;color-rendering:auto;image-rendering:auto;shape-rendering:auto;text-rendering:auto;enable-background:accumulate" />
      <g
         id="g2596"
         style="stroke-width:0.81170458">
        <path
           style="color:#000000;font-style:normal;font-variant:normal;font-weight:normal;font-stretch:normal;font-size:medium;line-height:normal;font-family:sans-serif;font-variant-ligatures:normal;font-variant-position:normal;font-variant-caps:normal;font-variant-numeric:normal;font-variant-alternates:normal;font-feature-settings:normal;text-indent:0;text-align:start;text-decoration:none;text-decoration-line:none;text-decoration-style:solid;text-decoration-color:#000000;letter-spacing:normal;word-spacing:normal;text-transform:none;writing-mode:lr-tb;direction:ltr;text-orientation:mixed;dominant-baseline:auto;baseline-shift:baseline;text-anchor:start;white-space:normal;shape-padding:0;clip-rule:nonzero;display:inline;overflow:visible;visibility:visible;opacity:1;isolation:auto;mix-blend-mode:normal;color-interpolation:sRGB;color-interpolation-filters:linearRGB;solid-color:#000000;solid-opacity:1;vector-effect:none;fill:#8281a0;fill-opacity:1;fill-rule:nonzero;stroke:none;stroke-width:0.42952725;stroke-linecap:round;stroke-linejoin:round;stroke-miterlimit:1.5;stroke-dasharray:none;stroke-dashoffset:0;stroke-opacity:1;paint-order:markers fill stroke;color-rendering:auto;image-rendering:auto;shape-rendering:auto;text-rendering:auto;enable-background:accumulate"
           d="m 7.6464844,329.65039 a 0.26460996,0.26460996 0 0 0 -0.2382813,0.26367 v 1.0586 a 0.26460996,0.26460996 0 0 0 0.265625,0.26367 h 2.3808599 a 0.26460996,0.26460996 0 0 0 0.263671,-0.26367 v -1.0586 a 0.26460996,0.26460996 0 0 0 -0.263671,-0.26367 H 7.6738281 a 0.26460996,0.26460996 0 0 0 -0.027344,0 z"
           id="path1788"
           inkscape:connector-curvature="0" />
        <path
           inkscape:connector-curvature="0"
           id="path1731"
           transform="matrix(0.26458333,0,0,0.26458333,0,284.3)"
           d="m 15.900391,171.40234 a 1.0021231,1.0021231 0 0 0 0.0957,2.00196 h 2 a 1.00098,1.00098 0 1 0 0,-2.00196 h -2 a 1.0001006,1.0001006 0 0 0 -0.0957,0 z m 0.0957,3.99414 a 1.000252,1.000252 0 1 0 0,2 h 9.005859 a 1.000252,1.000252 0 1 0 0,-2 z"
           style="color:#000000;font-style:normal;font-variant:normal;font-weight:normal;font-stretch:normal;font-size:medium;line-height:normal;font-family:sans-serif;font-variant-ligatures:normal;font-variant-position:normal;font-variant-caps:normal;font-variant-numeric:normal;font-variant-alternates:normal;font-feature-settings:normal;text-indent:0;text-align:start;text-decoration:none;text-decoration-line:none;text-decoration-style:solid;text-decoration-color:#000000;letter-spacing:normal;word-spacing:normal;text-transform:none;writing-mode:lr-tb;direction:ltr;text-orientation:mixed;dominant-baseline:auto;baseline-shift:baseline;text-anchor:start;white-space:normal;shape-padding:0;clip-rule:nonzero;display:inline;overflow:visible;visibility:visible;opacity:1;isolation:auto;mix-blend-mode:normal;color-interpolation:sRGB;color-interpolation-filters:linearRGB;solid-color:#000000;solid-opacity:1;vector-effect:none;fill:#b7b4b3;fill-opacity:1;fill-rule:nonzero;stroke:none;stroke-width:1.62341011;stroke-linecap:round;stroke-linejoin:round;stroke-miterlimit:1.5;stroke-dasharray:none;stroke-dashoffset:0;stroke-opacity:1;paint-order:markers fill stroke;color-rendering:auto;image-rendering:auto;shape-rendering:auto;text-rendering:auto;enable-background:accumulate" />
        <path
           style="color:#000000;font-style:normal;font-variant:normal;font-weight:normal;font-stretch:normal;font-size:medium;line-height:normal;font-family:sans-serif;font-variant-ligatures:normal;font-variant-position:normal;font-variant-caps:normal;font-variant-numeric:normal;font-variant-alternates:normal;font-feature-settings:normal;text-indent:0;text-align:start;text-decoration:none;text-decoration-line:none;text-decoration-style:solid;text-decoration-color:#000000;letter-spacing:normal;word-spacing:normal;text-transform:none;writing-mode:lr-tb;direction:ltr;text-orientation:mixed;dominant-baseline:auto;baseline-shift:baseline;text-anchor:start;white-space:normal;shape-padding:0;clip-rule:nonzero;display:inline;overflow:visible;visibility:visible;opacity:1;isolation:auto;mix-blend-mode:normal;color-interpolation:sRGB;color-interpolation-filters:linearRGB;solid-color:#000000;solid-opacity:1;vector-effect:none;fill:#039be5;fill-opacity:1;fill-rule:nonzero;stroke:none;stroke-width:0.42952725;stroke-linecap:round;stroke-linejoin:round;stroke-miterlimit:1.5;stroke-dasharray:none;stroke-dashoffset:0;stroke-opacity:1;paint-order:markers fill stroke;color-rendering:auto;image-rendering:auto;shape-rendering:auto;text-rendering:auto;enable-background:accumulate"
           d="M 4.2324219,331.76562 A 0.26460996,0.26460996 0 0 0 3.96875,332.03125 v 1.05859 a 0.26460996,0.26460996 0 0 0 0.2636719,0.26368 h 5.8222661 a 0.26460996,0.26460996 0 0 0 0.263671,-0.26368 v -1.05859 a 0.26460996,0.26460996 0 0 0 -0.263671,-0.26563 z"
           id="path1793"
           inkscape:connector-curvature="0" />
        <path
           inkscape:connector-curvature="0"
           id="path1735"
           transform="matrix(0.26458333,0,0,0.26458333,0,284.3)"
           d="m 15.996094,187.40039 a 1.000252,1.000252 0 1 0 0,2 h 6.001953 a 1.000252,1.000252 0 1 0 0,-2 z m -0.0957,4 a 1.0013833,1.0013833 0 0 0 0.0957,2 h 6.001953 a 1.0002331,1.0002331 0 1 0 0,-2 h -6.001953 a 1.0001006,1.0001006 0 0 0 -0.0957,0 z m 0,4.00195 a 1.0014022,1.0014022 0 0 0 0.0957,2 h 6.001953 a 1.000252,1.000252 0 1 0 0,-2 h -6.001953 a 1.0001006,1.0001006 0 0 0 -0.0957,0 z m 0,4 a 1.0014022,1.0014022 0 0 0 0.0957,2 h 6.001953 a 1.000252,1.000252 0 1 0 0,-2 h -6.001953 a 1.0001006,1.0001006 0 0 0 -0.0957,0 z"
           style="color:#000000;font-style:normal;font-variant:normal;font-weight:normal;font-stretch:normal;font-size:medium;line-height:normal;font-family:sans-serif;font-variant-ligatures:normal;font-variant-position:normal;font-variant-caps:normal;font-variant-numeric:normal;font-variant-alternates:normal;font-feature-settings:normal;text-indent:0;text-align:start;text-decoration:none;text-decoration-line:none;text-decoration-style:solid;text-decoration-color:#000000;letter-spacing:normal;word-spacing:normal;text-transform:none;writing-mode:lr-tb;direction:ltr;text-orientation:mixed;dominant-baseline:auto;baseline-shift:baseline;text-anchor:start;white-space:normal;shape-padding:0;clip-rule:nonzero;display:inline;overflow:visible;visibility:visible;opacity:1;isolation:auto;mix-blend-mode:normal;color-interpolation:sRGB;color-interpolation-filters:linearRGB;solid-color:#000000;solid-opacity:1;vector-effect:none;fill:#4d4d4d;fill-opacity:1;fill-rule:nonzero;stroke:none;stroke-width:1.62341011;stroke-linecap:round;stroke-linejoin:round;stroke-miterlimit:1.5;stroke-dasharray:none;stroke-dashoffset:0;stroke-opacity:1;paint-order:markers fill stroke;color-rendering:auto;image-rendering:auto;shape-rendering:auto;text-rendering:auto;enable-background:accumulate" />
        <path
           style="color:#000000;font-style:normal;font-variant:normal;font-weight:normal;font-stretch:normal;font-size:medium;line-height:normal;font-family:sans-serif;font-variant-ligatures:normal;font-variant-position:normal;font-variant-caps:normal;font-variant-numeric:normal;font-variant-alternates:normal;font-feature-settings:normal;text-indent:0;text-align:start;text-decoration:none;text-decoration-line:none;text-decoration-style:solid;text-decoration-color:#000000;letter-spacing:normal;word-spacing:normal;text-transform:none;writing-mode:lr-tb;direction:ltr;text-orientation:mixed;dominant-baseline:auto;baseline-shift:baseline;text-anchor:start;white-space:normal;shape-padding:0;clip-rule:nonzero;display:inline;overflow:visible;visibility:visible;opacity:1;isolation:auto;mix-blend-mode:normal;color-interpolation:sRGB;color-interpolation-filters:linearRGB;solid-color:#000000;solid-opacity:1;vector-effect:none;fill:#b7b4b3;fill-opacity:1;fill-rule:nonzero;stroke:none;stroke-width:0.42952725;stroke-linecap:round;stroke-linejoin:round;stroke-miterlimit:1.5;stroke-dasharray:none;stroke-dashoffset:0;stroke-opacity:1;paint-order:markers fill stroke;color-rendering:auto;image-rendering:auto;shape-rendering:auto;text-rendering:auto;enable-background:accumulate"
           d="m 7.9375,333.88281 a 0.26460996,0.26460996 0 0 0 -0.2636719,0.26563 v 1.05664 A 0.26460996,0.26460996 0 0 0 7.9375,335.4707 h 2.117188 a 0.26460996,0.26460996 0 0 0 0.263671,-0.26562 v -1.05664 a 0.26460996,0.26460996 0 0 0 -0.263671,-0.26563 z"
           id="path1798"
           inkscape:connector-curvature="0" />
        <path
           style="color:#000000;font-style:normal;font-variant:normal;font-weight:normal;font-stretch:normal;font-size:medium;line-height:normal;font-family:sans-serif;font-variant-ligatures:normal;font-variant-position:normal;font-variant-caps:normal;font-variant-numeric:normal;font-variant-alternates:normal;font-feature-settings:normal;text-indent:0;text-align:start;text-decoration:none;text-decoration-line:none;text-decoration-style:solid;text-decoration-color:#000000;letter-spacing:normal;word-spacing:normal;text-transform:none;writing-mode:lr-tb;direction:ltr;text-orientation:mixed;dominant-baseline:auto;baseline-shift:baseline;text-anchor:start;white-space:normal;shape-padding:0;clip-rule:nonzero;display:inline;overflow:visible;visibility:visible;opacity:1;isolation:auto;mix-blend-mode:normal;color-interpolation:sRGB;color-interpolation-filters:linearRGB;solid-color:#000000;solid-opacity:1;vector-effect:none;fill:#b7b4b3;fill-opacity:1;fill-rule:nonzero;stroke:none;stroke-width:0.42952725;stroke-linecap:round;stroke-linejoin:round;stroke-miterlimit:1.5;stroke-dasharray:none;stroke-dashoffset:0;stroke-opacity:1;paint-order:markers fill stroke;color-rendering:auto;image-rendering:auto;shape-rendering:auto;text-rendering:auto;enable-background:accumulate"
           d="m 7.9101562,336 a 0.26460996,0.26460996 0 0 0 -0.2363281,0.26367 v 1.0586 A 0.26460996,0.26460996 0 0 0 7.9375,337.58789 h 2.117188 a 0.26460996,0.26460996 0 0 0 0.263671,-0.26562 v -1.0586 A 0.26460996,0.26460996 0 0 0 10.054688,336 H 7.9375 a 0.26460996,0.26460996 0 0 0 -0.027344,0 z"
           id="path1804"
           inkscape:connector-curvature="0" />
        <path
           inkscape:connector-curvature="0"
           id="path1746"
           transform="matrix(0.26458333,0,0,0.26458333,0,284.3)"
           d="m 25.001953,187.40039 a 1.000252,1.000252 0 1 0 0,2 h 0.996094 a 1.000252,1.000252 0 1 0 0,-2 z m -0.103515,4 a 1.001567,1.001567 0 0 0 0.103515,2 h 0.996094 a 1.0002331,1.0002331 0 1 0 0,-2 h -0.996094 a 1.0001006,1.0001006 0 0 0 -0.103515,0 z m 0,4.00195 a 1.0015858,1.0015858 0 0 0 0.103515,2 h 0.996094 a 1.000252,1.000252 0 1 0 0,-2 h -0.996094 a 1.0001006,1.0001006 0 0 0 -0.103515,0 z m 0,4 a 1.0015858,1.0015858 0 0 0 0.103515,2 h 0.996094 a 1.000252,1.000252 0 1 0 0,-2 h -0.996094 a 1.0001006,1.0001006 0 0 0 -0.103515,0 z"
           style="color:#000000;font-style:normal;font-variant:normal;font-weight:normal;font-stretch:normal;font-size:medium;line-height:normal;font-family:sans-serif;font-variant-ligatures:normal;font-variant-position:normal;font-variant-caps:normal;font-variant-numeric:normal;font-variant-alternates:normal;font-feature-settings:normal;text-indent:0;text-align:start;text-decoration:none;text-decoration-line:none;text-decoration-style:solid;text-decoration-color:#000000;letter-spacing:normal;word-spacing:normal;text-transform:none;writing-mode:lr-tb;direction:ltr;text-orientation:mixed;dominant-baseline:auto;baseline-shift:baseline;text-anchor:start;white-space:normal;shape-padding:0;clip-rule:nonzero;display:inline;overflow:visible;visibility:visible;opacity:1;isolation:auto;mix-blend-mode:normal;color-interpolation:sRGB;color-interpolation-filters:linearRGB;solid-color:#000000;solid-opacity:1;vector-effect:none;fill:#b7b4b3;fill-opacity:1;fill-rule:nonzero;stroke:none;stroke-width:1.62341011;stroke-linecap:round;stroke-linejoin:round;stroke-miterlimit:1.5;stroke-dasharray:none;stroke-dashoffset:0;stroke-opacity:1;paint-order:markers fill stroke;color-rendering:auto;image-rendering:auto;shape-rendering:auto;text-rendering:auto;enable-background:accumulate" />
        <path
           style="color:#000000;font-style:normal;font-variant:normal;font-weight:normal;font-stretch:normal;font-size:medium;line-height:normal;font-family:sans-serif;font-variant-ligatures:normal;font-variant-position:normal;font-variant-caps:normal;font-variant-numeric:normal;font-variant-alternates:normal;font-feature-settings:normal;text-indent:0;text-align:start;text-decoration:none;text-decoration-line:none;text-decoration-style:solid;text-decoration-color:#000000;letter-spacing:normal;word-spacing:normal;text-transform:none;writing-mode:lr-tb;direction:ltr;text-orientation:mixed;dominant-baseline:auto;baseline-shift:baseline;text-anchor:start;white-space:normal;shape-padding:0;clip-rule:nonzero;display:inline;overflow:visible;visibility:visible;opacity:1;isolation:auto;mix-blend-mode:normal;color-interpolation:sRGB;color-interpolation-filters:linearRGB;solid-color:#000000;solid-opacity:1;vector-effect:none;fill:#8281a0;fill-opacity:1;fill-rule:nonzero;stroke:none;stroke-width:0.42952725;stroke-linecap:round;stroke-linejoin:round;stroke-miterlimit:1.5;stroke-dasharray:none;stroke-dashoffset:0;stroke-opacity:1;paint-order:markers fill stroke;color-rendering:auto;image-rendering:auto;shape-rendering:auto;text-rendering:auto;enable-background:accumulate"
           d="m 7.1171875,338.11719 a 0.26460996,0.26460996 0 0 0 -0.2382813,0.26367 v 1.05859 a 0.26460996,0.26460996 0 0 0 0.265625,0.26367 h 2.9101568 a 0.26460996,0.26460996 0 0 0 0.263671,-0.26367 v -1.05859 a 0.26460996,0.26460996 0 0 0 -0.263671,-0.26367 H 7.1445312 a 0.26460996,0.26460996 0 0 0 -0.027344,0 z"
           id="path1808"
           inkscape:connector-curvature="0" />
        <path
           style="color:#000000;font-style:normal;font-variant:normal;font-weight:normal;font-stretch:normal;font-size:medium;line-height:normal;font-family:sans-serif;font-variant-ligatures:normal;font-variant-position:normal;font-variant-caps:normal;font-variant-numeric:normal;font-variant-alternates:normal;font-feature-settings:normal;text-indent:0;text-align:start;text-decoration:none;text-decoration-line:none;text-decoration-style:solid;text-decoration-color:#000000;letter-spacing:normal;word-spacing:normal;text-transform:none;writing-mode:lr-tb;direction:ltr;text-orientation:mixed;dominant-baseline:auto;baseline-shift:baseline;text-anchor:start;white-space:normal;shape-padding:0;clip-rule:nonzero;display:inline;overflow:visible;visibility:visible;opacity:1;isolation:auto;mix-blend-mode:normal;color-interpolation:sRGB;color-interpolation-filters:linearRGB;solid-color:#000000;solid-opacity:1;vector-effect:none;fill:#039be5;fill-opacity:1;fill-rule:nonzero;stroke:none;stroke-width:0.42952725;stroke-linecap:round;stroke-linejoin:round;stroke-miterlimit:1.5;stroke-dasharray:none;stroke-dashoffset:0;stroke-opacity:1;paint-order:markers fill stroke;color-rendering:auto;image-rendering:auto;shape-rendering:auto;text-rendering:auto;enable-background:accumulate"
           d="m 4.2324219,339.17383 a 0.264645,0.264645 0 1 0 0,0.52929 h 1.8535156 a 0.264645,0.264645 0 1 0 0,-0.52929 z"
           id="path1763"
           inkscape:connector-curvature="0" />
        <path
           style="color:#000000;font-style:normal;font-variant:normal;font-weight:normal;font-stretch:normal;font-size:medium;line-height:normal;font-family:sans-serif;font-variant-ligatures:normal;font-variant-position:normal;font-variant-caps:normal;font-variant-numeric:normal;font-variant-alternates:normal;font-feature-settings:normal;text-indent:0;text-align:start;text-decoration:none;text-decoration-line:none;text-decoration-style:solid;text-decoration-color:#000000;letter-spacing:normal;word-spacing:normal;text-transform:none;writing-mode:lr-tb;direction:ltr;text-orientation:mixed;dominant-baseline:auto;baseline-shift:baseline;text-anchor:start;white-space:normal;shape-padding:0;clip-rule:nonzero;display:inline;overflow:visible;visibility:visible;opacity:1;isolation:auto;mix-blend-mode:normal;color-interpolation:sRGB;color-interpolation-filters:linearRGB;solid-color:#000000;solid-opacity:1;vector-effect:none;fill:#656581;fill-opacity:1;fill-rule:nonzero;stroke:none;stroke-width:0.42952725;stroke-linecap:round;stroke-linejoin:round;stroke-miterlimit:1.5;stroke-dasharray:none;stroke-dashoffset:0;stroke-opacity:1;paint-order:markers fill stroke;color-rendering:auto;image-rendering:auto;shape-rendering:auto;text-rendering:auto;enable-background:accumulate"
           d="m 7.6465664,329.65039 a 0.26460995,0.26460995 0 0 0 -0.2382284,0.26407 v 0.2651 h 2.1171833 a 0.26460995,0.26460995 0 0 1 0.2635499,0.26406 v 0.79272 h 0.2656168 a 0.26460995,0.26460995 0 0 0 0.26355,-0.26355 v -1.05833 a 0.26460995,0.26460995 0 0 0 -0.26355,-0.26407 H 7.6739548 a 0.26460995,0.26460995 0 0 0 -0.027388,0 z"
           id="path1831"
           inkscape:connector-curvature="0" />
        <path
           style="color:#000000;font-style:normal;font-variant:normal;font-weight:normal;font-stretch:normal;font-size:medium;line-height:normal;font-family:sans-serif;font-variant-ligatures:normal;font-variant-position:normal;font-variant-caps:normal;font-variant-numeric:normal;font-variant-alternates:normal;font-feature-settings:normal;text-indent:0;text-align:start;text-decoration:none;text-decoration-line:none;text-decoration-style:solid;text-decoration-color:#000000;letter-spacing:normal;word-spacing:normal;text-transform:none;writing-mode:lr-tb;direction:ltr;text-orientation:mixed;dominant-baseline:auto;baseline-shift:baseline;text-anchor:start;white-space:normal;shape-padding:0;clip-rule:nonzero;display:inline;overflow:visible;visibility:visible;opacity:1;isolation:auto;mix-blend-mode:normal;color-interpolation:sRGB;color-interpolation-filters:linearRGB;solid-color:#000000;solid-opacity:1;vector-effect:none;fill:#1e7aa6;fill-opacity:1;fill-rule:nonzero;stroke:none;stroke-width:0.42952725;stroke-linecap:round;stroke-linejoin:round;stroke-miterlimit:1.5;stroke-dasharray:none;stroke-dashoffset:0;stroke-opacity:1;paint-order:markers fill stroke;color-rendering:auto;image-rendering:auto;shape-rendering:auto;text-rendering:auto;enable-background:accumulate"
           d="m 4.2323632,331.76562 a 0.26460995,0.26460995 0 0 0 -0.2635498,0.26562 v 0.26355 H 9.52558 a 0.26460995,0.26460995 0 0 1 0.2635499,0.26561 v 0.79272 h 0.2656171 a 0.26460995,0.26460995 0 0 0 0.26355,-0.26355 v -1.05833 a 0.26460995,0.26460995 0 0 0 -0.26355,-0.26562 z"
           id="path1836"
           inkscape:connector-curvature="0" />
        <path
           style="color:#000000;font-style:normal;font-variant:normal;font-weight:normal;font-stretch:normal;font-size:medium;line-height:normal;font-family:sans-serif;font-variant-ligatures:normal;font-variant-position:normal;font-variant-caps:normal;font-variant-numeric:normal;font-variant-alternates:normal;font-feature-settings:normal;text-indent:0;text-align:start;text-decoration:none;text-decoration-line:none;text-decoration-style:solid;text-decoration-color:#000000;letter-spacing:normal;word-spacing:normal;text-transform:none;writing-mode:lr-tb;direction:ltr;text-orientation:mixed;dominant-baseline:auto;baseline-shift:baseline;text-anchor:start;white-space:normal;shape-padding:0;clip-rule:nonzero;display:inline;overflow:visible;visibility:visible;opacity:1;isolation:auto;mix-blend-mode:normal;color-interpolation:sRGB;color-interpolation-filters:linearRGB;solid-color:#000000;solid-opacity:1;vector-effect:none;fill:#a7a5a5;fill-opacity:1;fill-rule:nonzero;stroke:none;stroke-width:0.42952725;stroke-linecap:round;stroke-linejoin:round;stroke-miterlimit:1.5;stroke-dasharray:none;stroke-dashoffset:0;stroke-opacity:1;paint-order:markers fill stroke;color-rendering:auto;image-rendering:auto;shape-rendering:auto;text-rendering:auto;enable-background:accumulate"
           d="m 7.9375043,333.88281 a 0.26460995,0.26460995 0 0 0 -0.2635498,0.26562 v 0.26355 H 9.525521 a 0.26460995,0.26460995 0 0 1 0.2635499,0.26561 v 0.79272 h 0.2656171 a 0.26460995,0.26460995 0 0 0 0.26355,-0.26562 v -1.05626 a 0.26460995,0.26460995 0 0 0 -0.26355,-0.26562 z"
           id="path1841"
           inkscape:connector-curvature="0" />
        <path
           inkscape:connector-curvature="0"
           id="path1846"
           d="m 7.937504,336 a 0.26460995,0.26460995 0 0 0 -0.2635498,0.26562 v 0.26355 h 1.8515665 a 0.26460995,0.26460995 0 0 1 0.2635499,0.26561 v 0.79272 h 0.2656174 a 0.26460995,0.26460995 0 0 0 0.26355,-0.26562 v -1.05626 A 0.26460995,0.26460995 0 0 0 10.054688,336 Z"
           style="color:#000000;font-style:normal;font-variant:normal;font-weight:normal;font-stretch:normal;font-size:medium;line-height:normal;font-family:sans-serif;font-variant-ligatures:normal;font-variant-position:normal;font-variant-caps:normal;font-variant-numeric:normal;font-variant-alternates:normal;font-feature-settings:normal;text-indent:0;text-align:start;text-decoration:none;text-decoration-line:none;text-decoration-style:solid;text-decoration-color:#000000;letter-spacing:normal;word-spacing:normal;text-transform:none;writing-mode:lr-tb;direction:ltr;text-orientation:mixed;dominant-baseline:auto;baseline-shift:baseline;text-anchor:start;white-space:normal;shape-padding:0;clip-rule:nonzero;display:inline;overflow:visible;visibility:visible;opacity:1;isolation:auto;mix-blend-mode:normal;color-interpolation:sRGB;color-interpolation-filters:linearRGB;solid-color:#000000;solid-opacity:1;vector-effect:none;fill:#a7a5a5;fill-opacity:1;fill-rule:nonzero;stroke:none;stroke-width:0.42952725;stroke-linecap:round;stroke-linejoin:round;stroke-miterlimit:1.5;stroke-dasharray:none;stroke-dashoffset:0;stroke-opacity:1;paint-order:markers fill stroke;color-rendering:auto;image-rendering:auto;shape-rendering:auto;text-rendering:auto;enable-background:accumulate" />
        <path
           inkscape:connector-curvature="0"
           id="path1848"
           d="m 7.1171346,338.11679 c -0.1355436,0.0136 -0.2386291,0.12785 -0.2382284,0.26407 v 0.2651 h 2.6467363 c 0.1455116,5.8e-4 0.2632486,0.11855 0.2635499,0.26406 v 0.79272 h 0.2656166 c 0.145313,-5.8e-4 0.262969,-0.11824 0.26355,-0.26355 v -1.05833 c -2.96e-4,-0.14552 -0.118034,-0.26349 -0.26355,-0.26407 H 7.144523 c -0.00912,-4.7e-4 -0.018265,-4.7e-4 -0.027388,0 z"
           style="color:#000000;font-style:normal;font-variant:normal;font-weight:normal;font-stretch:normal;font-size:medium;line-height:normal;font-family:sans-serif;font-variant-ligatures:normal;font-variant-position:normal;font-variant-caps:normal;font-variant-numeric:normal;font-variant-alternates:normal;font-feature-settings:normal;text-indent:0;text-align:start;text-decoration:none;text-decoration-line:none;text-decoration-style:solid;text-decoration-color:#000000;letter-spacing:normal;word-spacing:normal;text-transform:none;writing-mode:lr-tb;direction:ltr;text-orientation:mixed;dominant-baseline:auto;baseline-shift:baseline;text-anchor:start;white-space:normal;shape-padding:0;clip-rule:nonzero;display:inline;overflow:visible;visibility:visible;opacity:1;isolation:auto;mix-blend-mode:normal;color-interpolation:sRGB;color-interpolation-filters:linearRGB;solid-color:#000000;solid-opacity:1;vector-effect:none;fill:#656581;fill-opacity:1;fill-rule:nonzero;stroke:none;stroke-width:0.42952725;stroke-linecap:round;stroke-linejoin:round;stroke-miterlimit:1.5;stroke-dasharray:none;stroke-dashoffset:0;stroke-opacity:1;paint-order:markers fill stroke;color-rendering:auto;image-rendering:auto;shape-rendering:auto;text-rendering:auto;enable-background:accumulate"
           sodipodi:nodetypes="cccccccccccc" />
      </g>
      <path
         sodipodi:nodetypes="csscssssc"
         inkscape:connector-curvature="0"
         id="path1857"
         d="m 9.7890665,328.59187 c 0.5817445,0 1.0588505,0.47659 1.0588505,1.05833 v 10.05314 c 0,0.58175 -0.477106,1.05833 -1.0588505,1.05833 h 0.5291665 c 0.581745,0 1.05885,-0.47658 1.05885,-1.05833 V 329.6502 c 0,-0.58174 -0.477105,-1.05833 -1.05885,-1.05833 z"
         style="color:#000000;font-style:normal;font-variant:normal;font-weight:normal;font-stretch:normal;font-size:medium;line-height:normal;font-family:sans-serif;font-variant-ligatures:normal;font-variant-position:normal;font-variant-caps:normal;font-variant-numeric:normal;font-variant-alternates:normal;font-feature-settings:normal;text-indent:0;text-align:start;text-decoration:none;text-decoration-line:none;text-decoration-style:solid;text-decoration-color:#000000;letter-spacing:normal;word-spacing:normal;text-transform:none;writing-mode:lr-tb;direction:ltr;text-orientation:mixed;dominant-baseline:auto;baseline-shift:baseline;text-anchor:start;white-space:normal;shape-padding:0;clip-rule:nonzero;display:inline;overflow:visible;visibility:visible;opacity:1;isolation:auto;mix-blend-mode:normal;color-interpolation:sRGB;color-interpolation-filters:linearRGB;solid-color:#000000;solid-opacity:1;vector-effect:none;fill:#b7b4b3;fill-opacity:1;fill-rule:nonzero;stroke:none;stroke-width:0.42952725;stroke-linecap:round;stroke-linejoin:round;stroke-miterlimit:1.5;stroke-dasharray:none;stroke-dashoffset:0;stroke-opacity:1;paint-order:markers fill stroke;color-rendering:auto;image-rendering:auto;shape-rendering:auto;text-rendering:auto;enable-background:accumulate" />
    </g>
  </g>
</svg>
